{"title":"Pull My Daisy (1959) DVDRip x264 Ukr sub","uid":11108731,"size":234807236,"categoryP":"video","categoryS":"movies","magnet":"?xt=urn:btih:ceb5f40e06a017b59cd976a6765353cc04de1242&amp;dn=Pull+My+Daisy+%281959%29+DVDRip+x264+Ukr+sub&amp;tr=udp%3A%2F%2Ftracker.openbittorrent.com%3A80&amp;tr=udp%3A%2F%2Fopen.demonii.com%3A1337&amp;tr=udp%3A%2F%2Ftracker.coppersurfer.tk%3A6969&amp;tr=udp%3A%2F%2Fexodus.desync.com%3A6969","seeders":1,"leechers":0,"uploader":"orysia","files":-1,"time":1411766357,"description":"\nDirectors: Robert Frank, Alfred Leslie\nWriter: Jack Kerouac\nStars: Allen Ginsberg, Gregory Corso, Larry Rivers\n\nMilo is a railroad brakeman, his wife a painter. They have some poet friends who spend a good bit of time hanging out at their apartment. When Milo and his wife are visited by their bishop, they naturally would like their friends to be on their best behavior. But poets will be poets.\n\nFormat                                   : MPEG-4\nFormat profile                           : Base Media\nCodec ID                                 : isom\nFile size                                : 224 MiB\nDuration                                 : 26mn 23s\nOverall bit rate mode                    : Variable\nOverall bit rate                         : 1 187 Kbps\nMovie name                               : Pull My Daisy*1959 /antusyrzhuk\nGenre                                    : Short\nRecorded date                            : 1959\n\nVideo\nID                                       : 1\nFormat                                   : AVC\nFormat/Info                              : Advanced Video Codec\nFormat profile                           : &lt;a class=&quot;__cf_email__&quot; href=&quot;/cdn-cgi/l/email-protection&quot; data-cfemail=&quot;85c8e4ecebc5c9b6abb4&quot;&gt;[email&amp;#160;protected]&lt;/a&gt;&lt;script data-cfhash='f9e31' type=&quot;text/javascript&quot;&gt;\n/* &lt;![CDATA[ */!function(){try{var t=&quot;currentScript&quot;in document?document.currentScript:function(){for(var t=document.getElementsByTagName(&quot;script&quot;),e=t.length;e--;)if(t[e].getAttribute(&quot;data-cfhash&quot;))return t[e]}();if(t&amp;&amp;t.previousSibling){var e,r,n,i,c=t.previousSibling,a=c.getAttribute(&quot;data-cfemail&quot;);if(a){for(e=&quot;&quot;,r=parseInt(a.substr(0,2),16),n=2;a.length-n;n+=2)i=parseInt(a.substr(n,2),16)^r,e+=String.fromCharCode(i);e=document.createTextNode(e),c.parentNode.replaceChild(e,c)}t.parentNode.removeChild(t);}}catch(u){}}()/* ]]&gt; */&lt;/script&gt;\nFormat settings, CABAC                   : Yes\nFormat settings, ReFrames                : 5 frames\nCodec ID                                 : avc1\nCodec ID/Info                            : Advanced Video Coding\nDuration                                 : 26mn 16s\nBit rate                                 : 1 076 Kbps\nMaximum bit rate                         : 3 314 Kbps\nWidth                                    : 712 pixels\nHeight                                   : 526 pixels\nDisplay aspect ratio                     : 4:3\nFrame rate mode                          : Constant\nFrame rate                               : 23.976 fps\nColor space                              : YUV\nChroma subsampling                       : 4:2:0\nBit depth                                : 8 bits\nScan type                                : Progressive\nBits/(Pixel*Frame)                       : 0.120\nStream size                              : 202 MiB (90%)\n\n\nAudio\nID                                       : 2\nFormat                                   : AAC\nFormat/Info                              : Advanced Audio Codec\nFormat profile                           : LC\nCodec ID                                 : 40\nDuration                                 : 26mn 23s\nBit rate mode                            : Variable\nBit rate                                 : 111 Kbps\nMaximum bit rate                         : 120 Kbps\nChannel(s)                               : 2 channels\nChannel positions                        : Front: L R\nSampling rate                            : 48.0 KHz\nCompression mode                         : Lossy\nStream size                              : 21.0 MiB (9%)\nLanguage                                 : English\n\n+ Ukrainian and English subtitles in container\n\nScreenshots: &lt;a href=&quot;\nhttp://postimg.org/image/a8cvjb5t1/&quot; rel=&quot;nofollow&quot; target=&quot;_NEW&quot;&gt;\nhttp://postimg.org/image/a8cvjb5t1/&lt;/a&gt; &lt;a href=&quot;\nhttp://postimg.org/image/3xc9gmtyd/&quot; rel=&quot;nofollow&quot; target=&quot;_NEW&quot;&gt;\nhttp://postimg.org/image/3xc9gmtyd/&lt;/a&gt; &lt;a href=&quot;\nhttp://postimg.org/image/y0m6uu7tx/&quot; rel=&quot;nofollow&quot; target=&quot;_NEW&quot;&gt;\nhttp://postimg.org/image/y0m6uu7tx/&lt;/a&gt; &lt;a href=&quot;\nhttp://postimg.org/image/e8om9alnp/&quot; rel=&quot;nofollow&quot; target=&quot;_NEW&quot;&gt;\nhttp://postimg.org/image/e8om9alnp/&lt;/a&gt;\n\nMore movies at: http://cinemasterpiece .wordpress .com/","torrent":{"xt":"urn:btih:ceb5f40e06a017b59cd976a6765353cc04de1242","amp;dn":"Pull+My+Daisy+%281959%29+DVDRip+x264+Ukr+sub","amp;tr":["udp%3A%2F%2Ftracker.openbittorrent.com%3A80","udp%3A%2F%2Fopen.demonii.com%3A1337","udp%3A%2F%2Ftracker.coppersurfer.tk%3A6969","udp%3A%2F%2Fexodus.desync.com%3A6969"],"infoHash":"ceb5f40e06a017b59cd976a6765353cc04de1242","infoHashBuffer":{"type":"Buffer","data":[206,181,244,14,6,160,23,181,156,217,118,166,118,83,83,204,4,222,18,66]},"announce":[],"urlList":[]}}